# xmcd
#
# Track frame offsets:
#	150
#	17027
#	46672
#	73600
#
# Disc length: 1238 seconds
#
# Revision: 1
# Processed by: cddbd v1.5.2PL0 Copyright (c) Steve Scherf et al.
# Submitted via: audiograbber 1.83.01
#
DISCID=2904d404
DTITLE=CZECH - I do believe
DYEAR=1997
DGENRE=
TTITLE0=I do believe (Video Edit)
TTITLE1=I do believe (Wax Doctor Remix)
TTITLE2=I do believe (Extended Mix)
TTITLE3=I do believe (Album Version)
EXTD=
EXTT0=
EXTT1=
EXTT2=
EXTT3=
PLAYORDER=
